PathFileType	4	(X/Y/Z)	/Users/itak/Documents/Research/Walk-IL/dataset/trc/00044_00004.trc
DataRate	CameraRate	NumFrames	NumMarkers	Units	OrigDataRate	OrigDataStartFrame	OrigNumFrames
100.000000	100.000000	4	53	mm	100.000000	385	514
Frame#	Time	RPSI			LPSI			L3			STRN			T10			C7			CLAV			RBAK			LBAK			LSHO			LUPA			LAEL			LAOL			LWTS			LWPS			LFRA			LIFD			LHPS			LHTS			RSHO			RUPA			RAEL			RAOL			RWTS			RWPS			RFRA			RIFD			RHTS			RHPS			RBHD			LFHD			RFHD			LBHD			LHIP			RHIP			RASI			LASI			LKNE			LTHI			LANK			LTIP			LTOE			LMT1			LMT5			LHEE			RKNE			RTHI			RANK			RTIP			RTOE			RMT1			RMT5			RHEE			
		X1	Y1	Z1	X2	Y2	Z2	X3	Y3	Z3	X4	Y4	Z4	X5	Y5	Z5	X6	Y6	Z6	X7	Y7	Z7	X8	Y8	Z8	X9	Y9	Z9	X10	Y10	Z10	X11	Y11	Z11	X12	Y12	Z12	X13	Y13	Z13	X14	Y14	Z14	X15	Y15	Z15	X16	Y16	Z16	X17	Y17	Z17	X18	Y18	Z18	X19	Y19	Z19	X20	Y20	Z20	X21	Y21	Z21	X22	Y22	Z22	X23	Y23	Z23	X24	Y24	Z24	X25	Y25	Z25	X26	Y26	Z26	X27	Y27	Z27	X28	Y28	Z28	X29	Y29	Z29	X30	Y30	Z30	X31	Y31	Z31	X32	Y32	Z32	X33	Y33	Z33	X34	Y34	Z34	X35	Y35	Z35	X36	Y36	Z36	X37	Y37	Z37	X38	Y38	Z38	X39	Y39	Z39	X40	Y40	Z40	X41	Y41	Z41	X42	Y42	Z42	X43	Y43	Z43	X44	Y44	Z44	X45	Y45	Z45	X46	Y46	Z46	X47	Y47	Z47	X48	Y48	Z48	X49	Y49	Z49	X50	Y50	Z50	X51	Y51	Z51	X52	Y52	Z52	X53	Y53	Z53	

386	3.85	9.950384140014648	1061.782958984375	759.1744995117188	155.6905212402344	1055.81884765625	686.530029296875	88.89033508300781	1115.9716796875	712.1336669921875	168.7154235839844	1310.10546875	923.355224609375	85.63795471191406	1258.8642578125	686.94580078125	113.1549224853516	1526.90625	730.0470581054688	157.3151550292969	1435.9814453125	882.2311401367188	20.99516677856445	1388.974609375	705.709716796875	200.0664215087891	1487.638061523438	681.5711669921875	301.8593139648438	1494.271606445312	756.1438598632812	364.4006652832031	1370.293701171875	699.09814453125	388.5471801757812	1153.919311523438	680.8284301757812	285.3440856933594	1142.054931640625	659.3572387695312	368.9435119628906	901.5269165039062	782.2579956054688	381.7959289550781	886.6192626953125	695.445068359375	399.3483581542969	1037.925048828125	689.3652954101562	359.4320068359375	716.910888671875	813.6458129882812	392.3127746582031	797.1821899414062	727.3941040039062	387.2010498046875	807.5546264648438	797.9442138671875	-29.5804557800293	1511.225830078125	856.4100341796875	-101.8640670776367	1442.9990234375	862.2634887695312	-148.1667022705078	1179.803833007812	824.968017578125	-56.15507125854492	1147.767700195312	802.2816772460938	-88.01101684570312	927.1677856445312	958.607666015625	-167.8931274414062	909.2593383789062	914.58251953125	-162.1360626220703	1102.930053710938	843.9306640625	-66.75803375244141	743.7692260742188	984.6432495117188	-90.71392822265625	821.1802368164062	1001.936462402344	-155.4552917480469	812.1348876953125	962.4224243164062	195.2809600830078	1710.811767578125	772.4780883789062	69.65909576416016	1723.036865234375	950.5722045898438	167.1862640380859	1733.490966796875	950.6165161132812	52.02230072021484	1693.463623046875	779.0248413085938	293.9587097167969	953.1859130859375	720.8386840820312	-28.96076774597168	947.337646484375	905.9638061523438	81.30804443359375	982.90380859375	964.0170288085938	288.5548400878906	997.3899536132812	857.1394653320312	311.5817260742188	499.1178894042969	770.4486083984375	313.9763793945312	646.5806884765625	741.095947265625	137.9304351806641	191.0288391113281	390.8603210449219	235.3507690429688	354.2461242675781	563.10498046875	153.4088287353516	39.93582916259766	556.0252685546875	120.7379150390625	84.94641876220703	531.3662109375	192.7946166992188	98.6201171875	454.8206787109375	73.5850830078125	246.6734619140625	379.9686889648438	53.69916915893555	527.794677734375	980.3154907226562	-13.40928363800049	788.2266845703125	948.6134033203125	106.6531524658203	40.30839157104492	924.2557983398438	62.65922927856445	399.1470947265625	974.6961059570312	184.0075225830078	43.07631683349609	1147.201171875	202.9842071533203	49.63550186157227	1081.530151367188	105.5839385986328	40.90578842163086	1074.22021484375	143.3114776611328	42.38467788696289	863.8491821289062	
387	3.86	11.80737972259521	1062.732177734375	763.8973999023438	158.2067565917969	1056.8310546875	692.4068603515625	91.20323181152344	1117.018676757812	717.732421875	169.5352630615234	1310.848022460938	929.5341186523438	87.6231689453125	1259.842163085938	692.7560424804688	114.5819396972656	1527.895263671875	736.230712890625	158.2418365478516	1436.784790039062	888.5912475585938	22.67601203918457	1389.814819335938	711.4623413085938	201.7101287841797	1488.756469726562	688.1431884765625	303.2197875976562	1495.396484375	763.1563110351562	365.9063415527344	1371.454223632812	706.2193603515625	389.9672241210938	1155.062133789062	687.7748413085938	286.8399353027344	1143.3564453125	665.9890747070312	369.8656921386719	902.42333984375	788.5270385742188	382.9251708984375	887.7426147460938	701.7044067382812	400.6551208496094	1039.041748046875	696.0899047851562	360.1468505859375	717.730712890625	819.3817749023438	393.4254455566406	798.2396240234375	733.437744140625	388.1126403808594	808.4329223632812	804.0155029296875	-28.70632743835449	1511.872924804688	861.9546508789062	-101.0041046142578	1443.616821289062	867.6474609375	-147.2950134277344	1180.225708007812	831.2320556640625	-55.34035110473633	1148.1142578125	808.747314453125	-86.12317657470703	929.5868530273438	968.0792236328125	-165.7998046875	910.6222534179688	924.374267578125	-161.1167449951172	1103.3583984375	850.9575805664062	-63.90818023681641	746.9804077148438	997.3206176757812	-88.43933868408203	824.3673095703125	1013.206970214844	-153.0265655517578	814.3901977539062	973.7637329101562	196.0159912109375	1711.777221679688	778.9042358398438	69.94517517089844	1723.880981445312	956.720947265625	167.5110778808594	1734.495971679688	956.9661254882812	52.7754020690918	1694.191772460938	785.1326293945312	296.4747009277344	953.9012451171875	727.9165649414062	-28.14796829223633	947.9747924804688	910.169189453125	81.54981231689453	983.5218505859375	969.35302734375	289.5844116210938	998.2521362304688	864.0228271484375	315.0354309082031	499.7987365722656	783.1107788085938	317.4010620117188	647.0975952148438	751.8865966796875	143.4814605712891	192.3035125732422	402.2203674316406	240.0887145996094	355.0625610351562	575.10546875	159.9110870361328	42.39582061767578	568.4044189453125	126.6942367553711	86.86502075195312	543.268798828125	199.2853851318359	101.3727798461914	467.2091979980469	78.54703521728516	247.1312103271484	390.623046875	53.98756790161133	527.6456298828125	981.8643188476562	-12.94967651367188	788.4098510742188	952.08056640625	106.7071838378906	40.34804916381836	924.2611694335938	62.80501937866211	399.111572265625	975.671875	183.9978332519531	42.98755645751953	1147.201416015625	202.93896484375	49.58441162109375	1081.570068359375	105.5388259887695	40.87134552001953	1074.249267578125	143.3825988769531	42.45320892333984	863.8563842773438	
388	3.87	13.65254211425781	1063.619384765625	768.49609375	160.6423797607422	1057.815307617188	698.121337890625	93.43171691894531	1118.024658203125	723.157470703125	170.3389434814453	1311.55908203125	935.5302734375	89.59024047851562	1260.791748046875	698.3704833984375	116.029426574707	1528.83349609375	742.2549438476562	159.1702270507812	1437.557495117188	894.760986328125	24.36629104614258	1390.633544921875	717.01171875	203.3852996826172	1489.83056640625	694.538330078125	304.5888061523438	1496.48095703125	769.9925537109375	367.4415588378906	1372.562744140625	713.1927490234375	391.4132995605469	1156.150146484375	694.6041870117188	288.3571472167969	1144.582153320312	672.5204467773438	370.841064453125	903.30859375	794.783447265625	384.085693359375	888.8146362304688	707.9598388671875	401.9847412109375	1040.1044921875	702.73779296875	360.926025390625	718.5676879882812	825.1981201171875	394.5636596679688	799.2581176757812	739.52197265625	389.0873718261719	809.3137817382812	810.1198120117188	-27.82402801513672	1512.495971679688	867.2982177734375	-100.1305694580078	1444.182739257812	872.830810546875	-146.3381195068359	1180.59033203125	837.3364868164062	-54.4302978515625	1148.401245117188	815.08642578125	-84.24909973144531	932.0094604492188	977.3939208984375	-163.7173919677734	912.001953125	933.9752807617188	-160.0224304199219	1103.74853515625	857.8225708007812	-61.16614151000977	750.205322265625	1009.803527832031	-86.27243041992188	827.56396484375	1024.300659179688	-150.6573333740234	816.6758422851562	984.9127807617188	196.8010711669922	1712.731201171875	785.2245483398438	70.22618103027344	1724.639892578125	962.7341918945312	167.86279296875	1735.412353515625	963.2161865234375	53.57976150512695	1694.91015625	791.0946044921875	298.9610290527344	954.6480712890625	734.8457641601562	-27.35641479492188	948.5511474609375	914.2217407226562	81.73772430419922	984.113525390625	974.5386352539062	290.5478210449219	999.095703125	870.729248046875	318.2029418945312	500.5796203613281	795.5269775390625	320.6591491699219	647.6553344726562	762.4400024414062	149.4201354980469	192.3074188232422	414.2164611816406	244.8015441894531	355.3987731933594	587.2218627929688	166.7518768310547	44.75751495361328	582.1962890625	132.9228973388672	88.34981536865234	556.2921752929688	206.1360321044922	103.2720794677734	480.7482604980469	83.87165069580078	246.1915435791016	401.51513671875	54.30905914306641	527.4915161132812	983.3209838867188	-12.45208644866943	788.5824584960938	955.42919921875	106.7775115966797	40.39581298828125	924.2713623046875	62.95307159423828	399.0785522460938	976.5967407226562	183.9922790527344	42.89491271972656	1147.196166992188	202.9041137695312	49.52367782592773	1081.600708007812	105.5086288452148	40.84356689453125	1074.2783203125	143.4636535644531	42.52125930786133	863.8658447265625	
389	3.88	15.48803520202637	1064.464599609375	773.0038452148438	162.9849700927734	1058.776611328125	703.676513671875	95.56320953369141	1118.994995117188	728.4208374023438	171.1219635009766	1312.251708984375	941.35546875	91.53257751464844	1261.7177734375	703.8087768554688	117.4928359985352	1529.732055664062	748.1190795898438	160.0966033935547	1438.308349609375	900.744140625	26.05903434753418	1391.437744140625	722.3712158203125	205.0859527587891	1490.864379882812	700.7589111328125	305.9572448730469	1497.529052734375	776.6531372070312	369.0081176757812	1373.627685546875	720.0194091796875	392.8916931152344	1157.193359375	701.3229370117188	289.9058227539062	1145.741821289062	678.9352416992188	371.8573303222656	904.1925048828125	801.0283813476562	385.2947082519531	889.8458251953125	714.2176513671875	403.3485412597656	1041.124145507812	709.317626953125	361.763916015625	719.4270629882812	831.0919799804688	395.7202758789062	800.2438354492188	745.656005859375	390.1014404296875	810.2018432617188	816.26220703125	-26.93124771118164	1513.114624023438	872.4615478515625	-99.23624420166016	1444.72216796875	877.8248901367188	-145.287109375	1180.923950195312	843.2676391601562	-53.40352249145508	1148.660034179688	821.2922973632812	-82.38876342773438	934.44482421875	986.5296630859375	-161.6421356201172	913.41259765625	943.3440551757812	-158.8370056152344	1104.121948242188	864.5092163085938	-58.54753875732422	753.441650390625	1022.045349121094	-84.19463348388672	830.7823486328125	1035.179321289062	-148.3499298095703	819.0029907226562	995.8228149414062	197.6410675048828	1713.681396484375	791.4390258789062	70.51551818847656	1725.326782226562	968.612548828125	168.2427062988281	1736.249389648438	969.36767578125	54.43380355834961	1695.628662109375	796.9131469726562	301.4051513671875	955.4342651367188	741.60595703125	-26.58616828918457	949.072021484375	918.1386108398438	81.90280914306641	984.6727294921875	979.5761108398438	291.4599914550781	999.9371337890625	877.2417602539062	321.0675964355469	501.4536743164062	807.7084350585938	323.7379150390625	648.2494506835938	772.7494506835938	155.7643585205078	191.0850067138672	426.8235168457031	249.5031433105469	355.2468872070312	599.4658203125	173.7872467041016	46.87892150878906	597.2710571289062	139.3677368164062	89.365478515625	570.3445434570312	213.2629241943359	104.2874221801758	495.3482971191406	89.62276458740234	243.9252166748047	412.6439208984375	54.64915084838867	527.3233642578125	984.687255859375	-11.92277717590332	788.7364501953125	958.6652221679688	106.8704071044922	40.44930648803711	924.288818359375	63.09226608276367	399.0473937988281	977.463134765625	183.9886169433594	42.79931259155273	1147.185913085938	202.8772125244141	49.45452117919922	1081.622314453125	105.490104675293	40.82172775268555	1074.3056640625	143.5535430908203	42.58707046508789	863.87744140625	
